<svg xmlns="http://www.w3.org/2000/svg" viewBox="0 0 1200 172.92"><defs><style>.cls-1,.cls-2{fill:#fff;}.cls-2{fill-rule:evenodd;}</style></defs><g id="Layer_2" data-name="Layer 2"><g id="Layer_1-2" data-name="Layer 1"><g id="Logo-M_UP-N-1200px" data-name="Logo-M&amp;UP-N-1200px"><path class="cls-1" d="M215.77,131.18h-11.1L211.38,48H225.5l12.2,30.35,14.8,38.74q8-20.24,15.63-38.74L280.88,48H295l8.09,83.15H292l-3.15-32.81-3.29-36.89q-7.28,18.26-14.94,36.89l-12.89,31H247.16l-12.2-31L221,62.22q0,4.82-2.61,36.15Z"/><path class="cls-1" d="M335,131.18H323.91V48H335Z"/><path class="cls-1" d="M407.39,131.18H357V48h11.1v74.14h39.34Z"/><path class="cls-1" d="M472.77,131.18H422.33V48h11.1v74.14h39.34Z"/><path class="cls-1" d="M499.63,131.18h-11.1V48h11.1Z"/><path class="cls-1" d="M600.51,89.24q0,19.61-11.17,31.27t-30.22,11.66q-18.78,0-30.16-11.72T517.59,89.24q0-19.62,11.17-31.21T559,46.43q19.47,0,30.5,11.54T600.51,89.24Zm-71.27,0q0,15.42,8.15,24.42t21.73,9q14.11,0,21.86-8.88t7.74-24.55q0-15.67-7.81-24.55T559,55.81q-14,0-21.86,8.94T529.24,89.24Z"/><path class="cls-1" d="M628.61,131.18h-11.1V48h14l23.16,35,23.44,36q-.54-12-.55-35.9V48h11.11v83.15h-14L651.5,96.39q-7-10.48-12.88-19.55t-8.36-13L627.93,60q.68,12.84.68,36.15Z"/><path class="cls-1" d="M752.14,131.18H740.22L772.43,48h15.35l31.66,83.15H807.52l-8.09-21.83H760.36Zm13.16-35-1.78,4.68h32.76L794.49,96l-14.39-40Q778.46,61.36,765.3,96.15Z"/><path class="cls-1" d="M845.89,131.18h-11.1V48h14l23.17,35,23.44,36q-.55-12-.55-35.9V48h11.1v83.15H892L868.78,96.39q-7-10.48-12.88-19.55t-8.36-13L845.21,60q.67,12.84.68,36.15Z"/><path class="cls-1" d="M955,131.18H927V48h27.41Q974.86,48,988,59.45T1001.05,89q0,18-12.13,30.1T955,131.18Zm-.69-74.26h-16v65.5h16.58q17.13,0,25.91-9.56T989.54,89a30.15,30.15,0,0,0-9.8-22.82Q969.93,56.92,954.31,56.92Z"/><path class="cls-1" d="M1120.23,99.6q0,16-9,24.3t-25,8.27q-15.77,0-24.68-8.08t-8.91-23.5V48h11.11v52.43q0,11.48,6.1,16.9t16.38,5.43q22.88,0,22.89-22.94V48h11.1Z"/><path class="cls-1" d="M1166.56,100.59H1152.3v30.59h-11.1V48h24.26q16,0,25.29,7.47A23.65,23.65,0,0,1,1200,74.8q0,11.11-9.18,18.45T1166.56,100.59Zm-1-44h-13.3V92.07h14.26q10.41,0,16.31-4.87a15.41,15.41,0,0,0,5.89-12.4,16.31,16.31,0,0,0-6-13.32Q1176.7,56.55,1165.6,56.55Z"/><polygon class="cls-2" points="113.5 38.86 113.5 153 153.05 131.18 153.05 62.41 113.5 38.86"/><polygon class="cls-2" points="96.3 0 96.3 162.49 77.4 172.92 56.75 161.75 56.75 23.55 96.3 0"/><polygon class="cls-2" points="39.55 38.99 39.55 152.45 0 131.06 0 62.55 39.55 38.99"/></g></g></g></svg>